<?xml version="1.0" encoding="UTF-8"?><svg id="a" xmlns="http://www.w3.org/2000/svg" viewBox="0 0 60.287 22.46"><path d="M15.271,9.269c.32,1.571,.253,3.357-.292,5.148-.675,2.222-1.964,4.104-3.631,5.299-1.604,1.151-3.366,1.52-4.96,1.034-.275-.084-.534-.198-.786-.327,.158,.014,.316,.035,.475,.035,1.286,0,2.595-.443,3.802-1.306,1.658-1.184,2.933-3.028,3.592-5.194,.489-1.607,.594-3.256,.323-4.779-.057-.319-.133-.63-.223-.936-.059-.202-.121-.403-.195-.599-.12-.318-.262-.614-.414-.901-.146-.274-.306-.531-.48-.775-.531-.745-1.185-1.341-1.94-1.759,.276,.033,.55,.082,.821,.164,.634,.193,1.206,.51,1.709,.927,.191,.159,.369,.336,.539,.522,.167,.183,.322,.38,.468,.587,.301,.427,.555,.903,.762,1.418,.096,.238,.181,.484,.255,.738,.067,.229,.124,.463,.173,.703Zm-6.262,8.662c1.39-.992,2.465-2.559,3.028-4.409,.563-1.852,.541-3.75-.062-5.349-.577-1.528-1.62-2.591-2.937-2.991-.379-.115-.771-.173-1.167-.173-.367,0-.738,.065-1.109,.162-.619,.161-1.237,.44-1.829,.863-.562,.401-1.055,.917-1.501,1.486-.657,.839-1.192,1.82-1.527,2.923-.336,1.104-.437,2.216-.358,3.28,.054,.721,.177,1.423,.42,2.069,.259,.687,.617,1.274,1.047,1.755,.527,.589,1.164,1.016,1.889,1.237,1.317,.399,2.774,.099,4.104-.852Zm37.806-4.553c-.47-1.548-.564-3.096-.352-4.514,.141-.942,.415-1.826,.818-2.608,.582-1.13,1.424-2.044,2.471-2.628-.279,.033-.556,.083-.83,.166-.918,.279-1.7,.824-2.333,1.55-.163,.187-.314,.386-.456,.596-.142,.211-.273,.432-.394,.664-.193,.374-.357,.772-.491,1.193-.081,.254-.15,.515-.208,.783-.055,.252-.099,.508-.132,.771-.181,1.403-.069,2.942,.4,4.486,.675,2.222,1.964,4.104,3.631,5.299,1.604,1.15,3.366,1.52,4.96,1.034,.275-.084,.536-.2,.791-.33-.152,.013-.303,.033-.455,.033-3.119,0-6.239-2.615-7.419-6.495Zm11.566-3.516c-.365-1.2-.942-2.256-1.648-3.111-.909-1.102-2.035-1.856-3.203-2.161-.369-.096-.74-.162-1.112-.162-.394,0-.786,.056-1.17,.173-2.793,.85-4.138,4.591-2.999,8.341s4.343,6.111,7.132,5.261c.719-.219,1.353-.641,1.877-1.223,.436-.483,.798-1.075,1.059-1.769,.243-.645,.366-1.347,.42-2.068,.079-1.064-.022-2.177-.358-3.28Z" style="fill:#51647f;"/><path d="M59.817,9.428c-.966-3.177-3.233-5.497-5.735-6.237-1.756-1.04-3.73-1.397-5.597-.831-1.192,.363-2.205,1.069-3.016,2.006-3.305-2.649-7.808-4.366-11.68-4.366h-7.963c-3.849,0-8.323,1.693-11.623,4.316-.692-.622-1.492-1.101-2.399-1.377-1.86-.564-3.823-.214-5.571,.813-.741,.214-1.472,.564-2.169,1.062-1.658,1.184-2.933,3.028-3.591,5.194-.658,2.165-.625,4.407,.094,6.313,.303,.802,.716,1.501,1.213,2.091,.882,1.826,2.318,3.209,4.175,3.773,.605,.184,1.226,.274,1.852,.274,1.493,0,3.014-.518,4.419-1.525,1.933-1.386,3.421-3.546,4.192-6.082,.664-2.185,.695-4.372,.222-6.282l.023-.022c1.967-1.913,5.674-3.973,9.165-3.973h7.963c3.491,0,7.197,2.059,9.164,3.972l.074,.072c.13,.126,.277,.235,.434,.331-.253,1.668-.144,3.496,.412,5.324,.771,2.536,2.259,4.696,4.192,6.082,1.405,1.008,2.926,1.525,4.419,1.525,.625,0,1.246-.091,1.852-.274,1.825-.555,3.293-1.894,4.201-3.802,.486-.584,.89-1.274,1.187-2.063,.719-1.906,.752-4.148,.094-6.313Zm-10.878,9.709c-1.667-1.195-2.956-3.077-3.631-5.299-.469-1.544-.581-3.083-.4-4.486,.034-.262,.078-.519,.132-.771,.058-.268,.127-.529,.208-.783,.134-.421,.298-.819,.491-1.193,.12-.232,.252-.453,.394-.664,.142-.21,.293-.409,.456-.596,.633-.726,1.415-1.271,2.333-1.55,.274-.083,.551-.133,.83-.166-1.047,.584-1.888,1.498-2.471,2.628-.403,.782-.677,1.666-.818,2.608-.212,1.417-.118,2.966,.352,4.514,1.18,3.88,4.3,6.495,7.419,6.495,.152,0,.303-.021,.455-.033-.254,.13-.515,.246-.791,.33-1.594,.485-3.355,.116-4.96-1.034ZM14.98,14.417c-.675,2.222-1.964,4.104-3.631,5.299-1.604,1.151-3.366,1.52-4.96,1.034-.275-.084-.534-.198-.786-.327,.158,.014,.316,.035,.475,.035,1.286,0,2.595-.443,3.802-1.306,1.658-1.184,2.933-3.028,3.592-5.194,.489-1.607,.594-3.256,.323-4.779-.057-.319-.133-.63-.223-.936-.059-.202-.121-.403-.195-.599-.12-.318-.262-.614-.414-.901-.146-.274-.306-.531-.48-.775-.531-.745-1.185-1.341-1.94-1.759,.276,.033,.55,.082,.821,.164,.634,.193,1.206,.51,1.709,.927,.191,.159,.369,.336,.539,.522,.167,.183,.322,.38,.468,.587,.301,.427,.555,.903,.762,1.418,.096,.238,.181,.484,.255,.738,.067,.229,.124,.463,.173,.703,.32,1.571,.253,3.357-.292,5.148ZM4.933,6.034c.592-.423,1.21-.701,1.829-.863,.371-.097,.742-.162,1.109-.162,.396,0,.788,.058,1.167,.173,1.317,.4,2.36,1.463,2.937,2.991,.603,1.599,.625,3.497,.062,5.349-.562,1.851-1.638,3.417-3.028,4.409-1.33,.95-2.788,1.251-4.104,.852-.725-.22-1.362-.648-1.889-1.237-.43-.481-.788-1.068-1.047-1.755-.243-.646-.366-1.348-.42-2.069-.079-1.063,.023-2.176,.358-3.28,.335-1.103,.869-2.083,1.527-2.923,.446-.57,.939-1.085,1.501-1.486Zm53.806,7.109c-.054,.721-.177,1.423-.42,2.068-.262,.694-.623,1.286-1.059,1.769-.525,.582-1.158,1.004-1.877,1.223-2.79,.851-5.993-1.511-7.132-5.261s.206-7.491,2.999-8.341c.384-.117,.776-.173,1.17-.173,.372,0,.743,.065,1.112,.162,1.168,.305,2.294,1.058,3.203,2.161,.706,.856,1.283,1.911,1.648,3.111,.336,1.104,.437,2.217,.358,3.28Z" style="fill:#251714;"/><path d="M33.788,1.5h-7.963c-3.505,0-7.586,1.539-10.619,3.929,.355,.486,.659,1.022,.911,1.599,2.27-1.981,6.072-3.953,9.708-3.953h7.963c3.822,0,7.837,2.179,10.05,4.255,.199-.618,.454-1.199,.762-1.735-3.053-2.482-7.229-4.095-10.811-4.095Z" style="fill:#282828;"/></svg>